<svg width="69" height="69" viewBox="0 0 69 69" fill="none" xmlns="http://www.w3.org/2000/svg">
<rect x="2.5" y="2.5" width="63.6274" height="63.6274" rx="7.5" stroke="#FEB41A" stroke-width="5"/>
<g clip-path="url(#clip0_13_112)">
<path d="M52.75 9H15.25C13.5924 9 12.0027 9.65848 10.8306 10.8306C9.65848 12.0027 9 13.5924 9 15.25L9 52.75C9 54.4076 9.65848 55.9973 10.8306 57.1694C12.0027 58.3415 13.5924 59 15.25 59H52.75C54.4076 59 55.9973 58.3415 57.1694 57.1694C58.3415 55.9973 59 54.4076 59 52.75V15.25C59 13.5924 58.3415 12.0027 57.1694 10.8306C55.9973 9.65848 54.4076 9 52.75 9ZM12.125 21.0531C12.125 19.575 13.525 18.375 15.25 18.375H52.75C54.475 18.375 55.875 19.575 55.875 21.0531V53.1969C55.875 54.675 54.475 55.875 52.75 55.875H15.25C13.525 55.875 12.125 54.675 12.125 53.1969V21.0531Z" fill="#FEB41A"/>
<path d="M29.3125 30.875C30.1413 30.875 30.9362 30.5458 31.5222 29.9597C32.1083 29.3737 32.4375 28.5788 32.4375 27.75C32.4375 26.9212 32.1083 26.1263 31.5222 25.5403C30.9362 24.9542 30.1413 24.625 29.3125 24.625C28.4837 24.625 27.6888 24.9542 27.1028 25.5403C26.5167 26.1263 26.1875 26.9212 26.1875 27.75C26.1875 28.5788 26.5167 29.3737 27.1028 29.9597C27.6888 30.5458 28.4837 30.875 29.3125 30.875ZM38.6875 30.875C39.5163 30.875 40.3112 30.5458 40.8972 29.9597C41.4833 29.3737 41.8125 28.5788 41.8125 27.75C41.8125 26.9212 41.4833 26.1263 40.8972 25.5403C40.3112 24.9542 39.5163 24.625 38.6875 24.625C37.8587 24.625 37.0638 24.9542 36.4778 25.5403C35.8917 26.1263 35.5625 26.9212 35.5625 27.75C35.5625 28.5788 35.8917 29.3737 36.4778 29.9597C37.0638 30.5458 37.8587 30.875 38.6875 30.875ZM48.0625 30.875C48.8913 30.875 49.6862 30.5458 50.2722 29.9597C50.8583 29.3737 51.1875 28.5788 51.1875 27.75C51.1875 26.9212 50.8583 26.1263 50.2722 25.5403C49.6862 24.9542 48.8913 24.625 48.0625 24.625C47.2337 24.625 46.4388 24.9542 45.8528 25.5403C45.2667 26.1263 44.9375 26.9212 44.9375 27.75C44.9375 28.5788 45.2667 29.3737 45.8528 29.9597C46.4388 30.5458 47.2337 30.875 48.0625 30.875ZM19.9375 40.25C20.7663 40.25 21.5612 39.9208 22.1472 39.3347C22.7333 38.7487 23.0625 37.9538 23.0625 37.125C23.0625 36.2962 22.7333 35.5013 22.1472 34.9153C21.5612 34.3292 20.7663 34 19.9375 34C19.1087 34 18.3138 34.3292 17.7278 34.9153C17.1417 35.5013 16.8125 36.2962 16.8125 37.125C16.8125 37.9538 17.1417 38.7487 17.7278 39.3347C18.3138 39.9208 19.1087 40.25 19.9375 40.25ZM29.3125 40.25C30.1413 40.25 30.9362 39.9208 31.5222 39.3347C32.1083 38.7487 32.4375 37.9538 32.4375 37.125C32.4375 36.2962 32.1083 35.5013 31.5222 34.9153C30.9362 34.3292 30.1413 34 29.3125 34C28.4837 34 27.6888 34.3292 27.1028 34.9153C26.5167 35.5013 26.1875 36.2962 26.1875 37.125C26.1875 37.9538 26.5167 38.7487 27.1028 39.3347C27.6888 39.9208 28.4837 40.25 29.3125 40.25ZM38.6875 40.25C39.5163 40.25 40.3112 39.9208 40.8972 39.3347C41.4833 38.7487 41.8125 37.9538 41.8125 37.125C41.8125 36.2962 41.4833 35.5013 40.8972 34.9153C40.3112 34.3292 39.5163 34 38.6875 34C37.8587 34 37.0638 34.3292 36.4778 34.9153C35.8917 35.5013 35.5625 36.2962 35.5625 37.125C35.5625 37.9538 35.8917 38.7487 36.4778 39.3347C37.0638 39.9208 37.8587 40.25 38.6875 40.25ZM48.0625 40.25C48.8913 40.25 49.6862 39.9208 50.2722 39.3347C50.8583 38.7487 51.1875 37.9538 51.1875 37.125C51.1875 36.2962 50.8583 35.5013 50.2722 34.9153C49.6862 34.3292 48.8913 34 48.0625 34C47.2337 34 46.4388 34.3292 45.8528 34.9153C45.2667 35.5013 44.9375 36.2962 44.9375 37.125C44.9375 37.9538 45.2667 38.7487 45.8528 39.3347C46.4388 39.9208 47.2337 40.25 48.0625 40.25ZM19.9375 49.625C20.7663 49.625 21.5612 49.2958 22.1472 48.7097C22.7333 48.1237 23.0625 47.3288 23.0625 46.5C23.0625 45.6712 22.7333 44.8763 22.1472 44.2903C21.5612 43.7042 20.7663 43.375 19.9375 43.375C19.1087 43.375 18.3138 43.7042 17.7278 44.2903C17.1417 44.8763 16.8125 45.6712 16.8125 46.5C16.8125 47.3288 17.1417 48.1237 17.7278 48.7097C18.3138 49.2958 19.1087 49.625 19.9375 49.625ZM29.3125 49.625C30.1413 49.625 30.9362 49.2958 31.5222 48.7097C32.1083 48.1237 32.4375 47.3288 32.4375 46.5C32.4375 45.6712 32.1083 44.8763 31.5222 44.2903C30.9362 43.7042 30.1413 43.375 29.3125 43.375C28.4837 43.375 27.6888 43.7042 27.1028 44.2903C26.5167 44.8763 26.1875 45.6712 26.1875 46.5C26.1875 47.3288 26.5167 48.1237 27.1028 48.7097C27.6888 49.2958 28.4837 49.625 29.3125 49.625ZM38.6875 49.625C39.5163 49.625 40.3112 49.2958 40.8972 48.7097C41.4833 48.1237 41.8125 47.3288 41.8125 46.5C41.8125 45.6712 41.4833 44.8763 40.8972 44.2903C40.3112 43.7042 39.5163 43.375 38.6875 43.375C37.8587 43.375 37.0638 43.7042 36.4778 44.2903C35.8917 44.8763 35.5625 45.6712 35.5625 46.5C35.5625 47.3288 35.8917 48.1237 36.4778 48.7097C37.0638 49.2958 37.8587 49.625 38.6875 49.625Z" fill="#FEB41A"/>
</g>
<defs>
<clipPath id="clip0_13_112">
<rect width="50" height="50" fill="white" transform="translate(9 9)"/>
</clipPath>
</defs>
</svg>
