<svg width="69" height="69" viewBox="0 0 69 69" fill="none" xmlns="http://www.w3.org/2000/svg">
<rect x="2.5" y="2.5" width="63.6274" height="63.6274" rx="7.5" stroke="#FEB41A" stroke-width="5"/>
<g clip-path="url(#clip0_13_108)">
<path d="M59.1239 54.3301C59.1239 54.3301 62.5721 54.3301 62.5721 50.8819C62.5721 47.4337 59.1239 37.0891 45.3311 37.0891C31.5383 37.0891 28.0902 47.4337 28.0902 50.8819C28.0902 54.3301 31.5383 54.3301 31.5383 54.3301H59.1239ZM31.6142 50.8819L31.5383 50.8681C31.5418 49.9578 32.1142 47.3165 34.159 44.9372C36.0624 42.7062 39.4071 40.5373 45.3311 40.5373C51.2517 40.5373 54.5964 42.7097 56.5033 44.9372C58.548 47.3165 59.117 49.9612 59.1239 50.8681L59.0963 50.875L59.048 50.8819H31.6142ZM45.3311 30.1927C47.1602 30.1927 48.9143 29.4662 50.2076 28.1728C51.5009 26.8795 52.2275 25.1254 52.2275 23.2964C52.2275 21.4673 51.5009 19.7132 50.2076 18.4199C48.9143 17.1266 47.1602 16.4 45.3311 16.4C43.5021 16.4 41.748 17.1266 40.4546 18.4199C39.1613 19.7132 38.4347 21.4673 38.4347 23.2964C38.4347 25.1254 39.1613 26.8795 40.4546 28.1728C41.748 29.4662 43.5021 30.1927 45.3311 30.1927ZM55.6757 23.2964C55.6757 24.6548 55.4081 26 54.8883 27.2551C54.3684 28.5101 53.6064 29.6505 52.6458 30.6111C51.6853 31.5717 50.5449 32.3336 49.2898 32.8535C48.0348 33.3734 46.6896 33.6409 45.3311 33.6409C43.9727 33.6409 42.6275 33.3734 41.3724 32.8535C40.1174 32.3336 38.977 31.5717 38.0164 30.6111C37.0558 29.6505 36.2938 28.5101 35.774 27.2551C35.2541 26 34.9865 24.6548 34.9865 23.2964C34.9865 20.5528 36.0764 17.9216 38.0164 15.9816C39.9564 14.0417 42.5876 12.9518 45.3311 12.9518C48.0747 12.9518 50.7059 14.0417 52.6458 15.9816C54.5858 17.9216 55.6757 20.5528 55.6757 23.2964ZM31.3177 38.0546C29.9376 37.6233 28.516 37.3378 27.0764 37.2029C26.2673 37.124 25.4548 37.086 24.642 37.0891C10.8492 37.0891 7.401 47.4337 7.401 50.8819C7.401 53.1807 8.5504 54.3301 10.8492 54.3301H25.3868C24.8758 53.2535 24.6209 52.0734 24.642 50.8819C24.642 47.3992 25.9419 43.8407 28.4005 40.8683C29.2384 39.8546 30.2142 38.9063 31.3177 38.0546ZM24.3661 40.5373C22.3266 43.6043 21.2243 47.1988 21.1938 50.8819H10.8492C10.8492 49.9854 11.4147 47.3303 13.4698 44.9372C15.3491 42.7442 18.6145 40.6063 24.3661 40.5408V40.5373ZM12.5733 25.0205C12.5733 22.2769 13.6632 19.6457 15.6031 17.7057C17.5431 15.7658 20.1743 14.6759 22.9179 14.6759C25.6614 14.6759 28.2926 15.7658 30.2326 17.7057C32.1726 19.6457 33.2624 22.2769 33.2624 25.0205C33.2624 27.764 32.1726 30.3952 30.2326 32.3352C28.2926 34.2752 25.6614 35.365 22.9179 35.365C20.1743 35.365 17.5431 34.2752 15.6031 32.3352C13.6632 30.3952 12.5733 27.764 12.5733 25.0205ZM22.9179 18.1241C21.0888 18.1241 19.3347 18.8507 18.0414 20.144C16.7481 21.4373 16.0215 23.1914 16.0215 25.0205C16.0215 26.8495 16.7481 28.6036 18.0414 29.8969C19.3347 31.1903 21.0888 31.9168 22.9179 31.9168C24.7469 31.9168 26.501 31.1903 27.7943 29.8969C29.0877 28.6036 29.8143 26.8495 29.8143 25.0205C29.8143 23.1914 29.0877 21.4373 27.7943 20.144C26.501 18.8507 24.7469 18.1241 22.9179 18.1241Z" fill="#FEB41A"/>
</g>
<defs>
<clipPath id="clip0_13_108">
<rect width="55.1711" height="55.1711" fill="white" transform="translate(7.401 6.05542)"/>
</clipPath>
</defs>
</svg>
