<svg width="69" height="69" viewBox="0 0 69 69" fill="none" xmlns="http://www.w3.org/2000/svg">
<rect x="2.5" y="2.5" width="63.6274" height="63.6274" rx="7.5" stroke="#FEB41A" stroke-width="5"/>
<path fill-rule="evenodd" clip-rule="evenodd" d="M33.6251 12.1248C30.3098 12.1248 27.1304 13.4418 24.7862 15.786C22.442 18.1302 21.125 21.3097 21.125 24.6249C21.125 27.9401 22.442 31.1195 24.7862 33.4637C27.1304 35.808 30.3098 37.1249 33.6251 37.1249C36.9403 37.1249 40.1197 35.808 42.4639 33.4637C44.8081 31.1195 46.1251 27.9401 46.1251 24.6249C46.1251 21.3097 44.8081 18.1302 42.4639 15.786C40.1197 13.4418 36.9403 12.1248 33.6251 12.1248ZM18 24.6249C18 21.6012 18.8774 18.6424 20.5257 16.1075C22.174 13.5725 24.5224 11.5703 27.2862 10.3436C30.0499 9.1169 33.1101 8.71846 36.0958 9.19659C39.0815 9.67473 41.8643 11.0089 44.1067 13.0373C46.3492 15.0657 47.9549 17.7011 48.7292 20.624C49.5034 23.5469 49.413 26.6317 48.4688 29.5042C47.5246 32.3767 45.7672 34.9136 43.4098 36.8071C41.0523 38.7006 38.1961 39.8694 35.1876 40.1718V46.5H41.4376C41.852 46.5 42.2494 46.6646 42.5424 46.9576C42.8355 47.2506 43.0001 47.6481 43.0001 48.0625C43.0001 48.4769 42.8355 48.8743 42.5424 49.1673C42.2494 49.4603 41.852 49.625 41.4376 49.625H35.1876V57.4375C35.1876 57.8519 35.0229 58.2493 34.7299 58.5424C34.4369 58.8354 34.0395 59 33.6251 59C33.2107 59 32.8132 58.8354 32.5202 58.5424C32.2272 58.2493 32.0626 57.8519 32.0626 57.4375V49.625H25.8125C25.3981 49.625 25.0007 49.4603 24.7077 49.1673C24.4146 48.8743 24.25 48.4769 24.25 48.0625C24.25 47.6481 24.4146 47.2506 24.7077 46.9576C25.0007 46.6646 25.3981 46.5 25.8125 46.5H32.0626V40.1718C28.2084 39.7845 24.6356 37.9793 22.0371 35.1066C19.4387 32.2339 18 28.4984 18 24.6249Z" fill="#FEB41A"/>
</svg>
